<mxfile host="app.diagrams.net" modified="2023-07-08T17:58:20.393Z" agent="Mozilla/5.0 (Windows NT 10.0; Win64; x64) AppleWebKit/537.36 (KHTML, like Gecko) Chrome/114.0.0.0 Safari/537.36 Edg/114.0.1823.58" version="21.5.0" etag="vk_rH9Ghwu96rInqynjl" type="github">
  <diagram name="Page-1" id="BrtFC8bSIb5wgip6BTd5">
    <mxGraphModel>
      <root>
        <mxCell id="0" />
        <mxCell id="1" parent="0" />
      </root>
    </mxGraphModel>
  </diagram>
</mxfile>
